# xmcd CD database file generated by OrangeCD 5.2
#
# Track frame offsets:
#	150
#	18324
#	34427
#	46011
#	63180
#	77667
#	95787
#	111834
#	131166
#	149746
#	165818
#	185515
#	207800
#	225209
#	241025
#	258209
#	273913
#	290949
#	307826
#	319988
#
# Disc length: 4447 seconds
#
# Revision: 0
# Processed by: cddbd v1.5.2PL0 Copyright (c) Steve Scherf et al.
# Submitted via: OrangeCD 5.2
#
DISCID=13115d14
DTITLE=Travis Tritt - The Very Best Of Travis Tritt
DYEAR=1900
DGENRE=Country
TTITLE0=It's A Great Day To Be Alive
TTITLE1=Take It Easy
TTITLE2=Here's A Quarter (Call Someone Who Cares)
TTITLE3=Anymore
TTITLE4=Country Club
TTITLE5=Help Me Hold On
TTITLE6=Where Corn Don't Grow
TTITLE7=The Best Of Intentions
TTITLE8=I'm Gonna Be Somebody
TTITLE9=Can I Trust You With My Heart?
TTITLE10=Foolish Pride
TTITLE11=Lord Have Mercy On The Workin' Man
TTITLE12=Nothin' Short Of Dyin'
TTITLE13=I Love You More Than You'll Ever Know
TTITLE14=Sometimes She Forgets
TTITLE15=This One's Gonna Hurt You (For A Long, Long Time)
TTITLE16=Tell Me That You Didn't Say Goodbye
TTITLE17=Till You Drift Off To Dream In My Arms
TTITLE18=The Whiskey Ain't Workin' Anymore
TTITLE19=T-R-O-U-B-L-E
EXTD=
EXTT0=
EXTT1=
EXTT2=
EXTT3=
EXTT4=
EXTT5=
EXTT6=
EXTT7=
EXTT8=
EXTT9=
EXTT10=
EXTT11=
EXTT12=
EXTT13=
EXTT14=
EXTT15=
EXTT16=
EXTT17=
EXTT18=
EXTT19=
PLAYORDER=
